# xmcd
#
# Track frame offsets:
#	150
#	18476
#	45330
#	80027
#	120837
#	191188
#
# Disc length: 2945 seconds
#
# Revision: 1
# Processed by: cddbd v1.5.2PL0 Copyright (c) Steve Scherf et al.
# Submitted via: audiograbber 1.83.01
#
DISCID=430b7f06
DTITLE=John Mayall and The Bluesbreakers - In The Shadow Of Legends (2)
DYEAR=1982
DGENRE=Blues
TTITLE0=The Dark Side Of Midnight
TTITLE1=Why Are You So Mean To Me? [with Albert King]
TTITLE2=Born Under A Bad Sign [with Albert King]
TTITLE3=Call It Stormy Monday [with Albert King]
TTITLE4=C.C. Rider Blues Jam [with Albert King, Buddy Guy, Junior Wells, Etta J
TTITLE4=ames and Sippie Wallace]
TTITLE5=Room To Move
EXTD=at New Jersey's Capitol Theatre
EXTT0=
EXTT1=
EXTT2=
EXTT3=
EXTT4=
EXTT5=
PLAYORDER=
